# xmcd
#
# Track frame offsets: 
#        150
#        10659
#        19313
#        28877
#        41391
#        53931
#        64503
#        73386
#        83773
#        93756
#        102852
#        112143
#        123979
#        133805
#        142170
#        150964
#        160631
#        171194
#
# Disc length: 2410 seconds
#
# Revision: 0
# Processed by: cddbd v1.5.2PL0 Copyright (c) Steve Scherf et al.
# Submitted via: ExactAudioCopyFreeDBPlugin 1.0
#
DISCID=ee096812
DTITLE=The Everly Brothers - The Hits Collection [CD2)
DYEAR=1900
DGENRE=Rock and Roll
TTITLE0=Walk Right Back
TTITLE1=(So It Was…So It Is) So It Always Will Be
TTITLE2=No One Can Make My Sunshine Smile
TTITLE3=Sweet Dreams
TTITLE4=Bowling Green
TTITLE5=All I Have To Do Is Dream
TTITLE6=Problems
TTITLE7=The Ferris Wheel
TTITLE8=Claudette
TTITLE9=Crying In The Rain
TTITLE10=When Will I Be Loved 
TTITLE11=Let It Be Me
TTITLE12=The Girl Sang The Blues
TTITLE13=Maybellene
TTITLE14=Hound Dog
TTITLE15=I Got A Woman
TTITLE16=Release Me
TTITLE17=It's Been Nice (Goodnight)
EXTD=
EXTT0=
EXTT1=
EXTT2=
EXTT3=
EXTT4=
EXTT5=
EXTT6=
EXTT7=
EXTT8=
EXTT9=
EXTT10=
EXTT11=
EXTT12=
EXTT13=
EXTT14=
EXTT15=
EXTT16=
EXTT17=
PLAYORDER=
